<?xml version="1.0" encoding="UTF-8"?> <svg xmlns="http://www.w3.org/2000/svg" width="331" height="58" viewBox="0 0 331 58" fill="none"><path d="M158.321 48.5396C157.802 48.5716 157.281 48.4996 156.79 48.3279C156.299 48.1562 155.847 47.8882 155.461 47.5396L155.911 46.5396C156.201 47.8196 159.831 48.2295 159.911 46.6795C159.911 46.1695 159.521 45.9496 159.091 45.8296C158.201 45.5696 156.801 45.6595 156.091 44.9395C155.883 44.6701 155.771 44.3396 155.771 43.9995C155.771 43.6595 155.883 43.329 156.091 43.0596C157.321 41.8196 159.521 42.3595 160.991 42.8995L160.481 43.8995C160.061 42.8295 155.981 42.6894 157.121 44.3794C158.121 45.0194 159.831 44.5996 160.671 45.5496C161.881 47.3296 160.161 48.6896 158.321 48.5396Z" fill="#52545B"></path><path d="M162.501 48.4094H162.191C162.381 48.2694 162.361 48.0996 162.371 47.8196V44.1096C162.371 43.8296 162.371 43.6695 162.191 43.5195H166.581C166.581 43.7295 166.451 44.2394 166.401 44.4294C166.251 44.2394 166.051 44.2595 165.741 44.2495H163.381V45.5796H165.381C165.651 45.5796 165.821 45.5794 165.971 45.4194V46.4194C165.791 46.1094 163.741 46.3195 163.391 46.2595V47.6895H165.781C166.081 47.6895 166.271 47.6895 166.421 47.5195L166.561 48.4395L162.501 48.4094Z" fill="#52545B"></path><path d="M170.269 48.5091C169.782 48.5556 169.292 48.4645 168.855 48.2462C168.417 48.0278 168.05 47.6911 167.795 47.2743C167.539 46.8574 167.406 46.3771 167.41 45.8883C167.415 45.3994 167.556 44.9215 167.819 44.5091C168.739 42.9391 170.979 43.2692 172.449 43.8192L171.949 44.7291C171.489 44.0491 170.099 44.0292 169.409 44.3492C168.519 44.7292 168.409 46.0692 168.799 46.8392C168.991 47.1089 169.248 47.3264 169.546 47.4722C169.843 47.6181 170.172 47.6878 170.504 47.6749C170.835 47.662 171.158 47.5668 171.443 47.3983C171.728 47.2297 171.967 46.9929 172.139 46.7091L172.589 47.5792C172.291 47.8919 171.93 48.1367 171.53 48.2972C171.13 48.4577 170.699 48.53 170.269 48.5091Z" fill="#52545B"></path><path d="M173.798 48.4095H173.488C173.678 48.2695 173.658 48.0997 173.668 47.8197V44.1097C173.668 43.8297 173.668 43.6696 173.488 43.5196C174.588 43.5896 176.888 43.3095 177.748 43.8895C177.974 44.0392 178.148 44.2558 178.244 44.5089C178.341 44.762 178.357 45.0389 178.288 45.3011C178.22 45.5633 178.071 45.7976 177.863 45.9713C177.655 46.145 177.398 46.2492 177.128 46.2696C178.318 46.4396 177.938 47.7496 178.438 48.4496H177.238L177.048 47.3697C176.878 46.3697 175.408 46.7595 174.668 46.6795C174.668 47.0295 174.528 48.2295 174.838 48.4295L173.798 48.4095ZM176.088 45.9195C177.088 46.0395 177.708 45.0696 176.958 44.4396C176.548 44.1296 175.208 44.2696 174.668 44.2396V45.9195H176.088Z" fill="#52545B"></path><path d="M179.888 48.4094H179.578C179.758 48.2694 179.738 48.0996 179.748 47.8196V44.1096C179.748 43.8296 179.748 43.6695 179.578 43.5195H183.968C183.968 43.7295 183.838 44.2394 183.788 44.4294C183.638 44.2394 183.438 44.2595 183.138 44.2495H180.768V45.5796H182.768C183.048 45.5796 183.208 45.5794 183.358 45.4194V46.4194C183.178 46.1094 181.128 46.3195 180.778 46.2595V47.6895H183.168C183.478 47.6895 183.658 47.6895 183.818 47.5195C183.818 47.7195 183.928 48.2395 183.958 48.4395L179.888 48.4094Z" fill="#52545B"></path><path d="M186.67 48.4104H186.37C186.57 48.2704 186.53 48.1006 186.54 47.8206V44.3306H185.28C185.02 44.3306 184.87 44.3305 184.76 44.4805L184.59 43.4805H189.59C189.59 43.6805 189.43 44.2905 189.39 44.4805C189.28 44.3005 189.12 44.3306 188.86 44.3206H187.59V47.8105C187.59 48.0905 187.59 48.2604 187.77 48.4004L186.67 48.4104Z" fill="#52545B"></path><path d="M195.178 47.9399C195.278 48.1699 195.318 48.2899 195.478 48.3899H194.168C194.408 48.1999 193.978 47.5601 193.918 47.3201H191.378C191.318 47.5501 190.838 48.2399 191.138 48.3899H189.828C190.078 48.3899 191.628 44.2 191.828 43.95C192.028 43.7 191.968 43.61 191.828 43.5H193.618C193.478 43.62 193.528 43.74 193.618 43.95L195.178 47.9399ZM192.598 44.0701L191.598 46.6001H193.598L192.598 44.0701Z" fill="#52545B"></path><path d="M196.572 48.4095H196.262C196.442 48.2695 196.422 48.0997 196.432 47.8197V44.1097C196.432 43.8297 196.432 43.6696 196.262 43.5196C197.362 43.5896 199.672 43.3095 200.532 43.8895C200.758 44.0392 200.931 44.2558 201.028 44.5089C201.125 44.762 201.14 45.0389 201.072 45.3011C201.003 45.5633 200.855 45.7976 200.647 45.9713C200.439 46.145 200.182 46.2492 199.912 46.2696C201.102 46.4396 200.712 47.7496 201.212 48.4496H200.022L199.822 47.3697C199.652 46.3697 198.182 46.7595 197.442 46.6795C197.442 47.0295 197.302 48.2295 197.612 48.4295L196.572 48.4095ZM198.872 45.9195C199.872 46.0395 200.492 45.0696 199.732 44.4396C199.322 44.1296 197.992 44.2696 197.442 44.2396V45.9195H198.872Z" fill="#52545B"></path><path d="M202.168 42.781L203.258 41.6211H204.378L202.928 42.781H202.168ZM202.668 48.4109H202.358C202.538 48.2709 202.528 48.101 202.538 47.821V44.1111C202.538 43.8311 202.538 43.671 202.358 43.521H203.728C203.548 43.671 203.558 43.8311 203.548 44.1111V47.821C203.548 48.101 203.548 48.2709 203.728 48.4109H202.668Z" fill="#52545B"></path><path d="M209.88 47.9399C209.98 48.1699 210.009 48.2899 210.169 48.3899H208.87C209.11 48.1999 208.67 47.5601 208.62 47.3201H206.069C206.069 47.5501 205.539 48.2399 205.839 48.3899H204.52C204.77 48.3899 206.32 44.2 206.52 43.95C206.72 43.7 206.66 43.61 206.52 43.5H208.309C208.169 43.62 208.229 43.74 208.309 43.95L209.88 47.9399ZM207.299 44.0701L206.299 46.6001H208.299L207.299 44.0701Z" fill="#52545B"></path><path d="M214.579 48.4121H214.27C214.45 48.2721 214.429 48.1023 214.439 47.8223V44.1123C214.439 43.8323 214.44 43.6722 214.27 43.5222C215.8 43.5722 218.029 43.2121 218.979 44.6321C219.168 44.9236 219.293 45.2523 219.344 45.5957C219.396 45.9392 219.374 46.2896 219.279 46.6238C219.185 46.958 219.02 47.2679 218.795 47.5332C218.571 47.7985 218.293 48.013 217.979 48.1621C216.869 48.4395 215.719 48.524 214.579 48.4121ZM216.27 47.6023C216.669 47.6926 217.088 47.6328 217.446 47.4346C217.804 47.2363 218.077 46.9132 218.213 46.5269C218.349 46.1405 218.338 45.718 218.182 45.3391C218.027 44.9603 217.738 44.6517 217.37 44.4722C216.755 44.2989 216.115 44.238 215.479 44.2922V47.6023H216.27Z" fill="#52545B"></path><path d="M220.851 48.4094H220.551C220.731 48.2694 220.711 48.0996 220.731 47.8196V44.1096C220.731 43.8296 220.731 43.6695 220.551 43.5195H224.971C224.971 43.7295 224.841 44.2394 224.781 44.4294C224.631 44.2394 224.431 44.2595 224.131 44.2495H221.761V45.5796H223.761C224.041 45.5796 224.201 45.5794 224.351 45.4194V46.4194C224.171 46.1094 222.121 46.3195 221.771 46.2595V47.6895H224.161C224.471 47.6895 224.661 47.6895 224.811 47.5195C224.811 47.7195 224.931 48.2395 224.961 48.4395L220.851 48.4094Z" fill="#52545B"></path><path d="M232.419 48.5322C229.709 48.7622 228.529 45.8922 229.599 43.7422C230.599 41.9022 233.219 42.2121 234.869 42.9521L234.329 43.9521C233.789 43.1221 232.159 43.0822 231.329 43.4822C230.239 43.9822 230.169 45.6423 230.599 46.6023C231.289 48.0223 233.889 47.8921 234.509 46.4621L235.009 47.4621C234.679 47.8159 234.277 48.0947 233.83 48.2793C233.383 48.4639 232.902 48.5501 232.419 48.5322Z" fill="#52545B"></path><path d="M238.429 48.5212C234.779 48.7712 234.769 43.1213 238.429 43.3713C242.049 43.1313 242.039 48.7612 238.429 48.5212ZM238.429 47.7112C240.579 47.8812 240.589 44.0112 238.429 44.1912C236.229 44.0012 236.249 47.8712 238.429 47.7112Z" fill="#52545B"></path><path d="M242.599 48.4094H242.289C242.469 48.2694 242.449 48.0996 242.459 47.8196V44.1096C242.459 43.8296 242.459 43.6695 242.289 43.5195H243.989C243.859 43.6395 243.989 43.7595 243.989 43.9495L245.509 46.4995L246.989 43.9495C247.079 43.7595 247.189 43.6395 247.059 43.5195H248.759C248.589 43.6695 248.599 43.8296 248.589 44.1096V47.8196C248.589 48.0996 248.589 48.2594 248.759 48.4094H247.399C247.579 48.2594 247.559 48.0996 247.569 47.8196V44.6096L245.699 47.9094H245.239L243.319 44.6096V47.8196C243.319 48.0996 243.319 48.2694 243.489 48.4094H242.599Z" fill="#52545B"></path><path d="M252.581 48.49C249.501 48.55 250.311 46.1601 250.211 44.0901C250.211 43.8101 250.211 43.65 250.031 43.5H251.431C251.231 43.64 251.261 43.8101 251.251 44.0901V46.6599C251.251 47.4599 251.741 47.6599 252.561 47.6599C253.381 47.6599 253.861 47.4499 253.881 46.6599V44.0901C253.881 43.8101 253.881 43.64 253.701 43.5H255.021C254.821 43.64 254.861 43.8101 254.841 44.0901C254.771 46.1001 255.591 48.55 252.581 48.49Z" fill="#52545B"></path><path d="M256.582 48.4094H256.262C256.452 48.2694 256.432 48.0996 256.442 47.8196V44.1096C256.442 43.8296 256.442 43.6695 256.262 43.5195H257.572L260.282 46.8794V44.1294C260.282 43.8394 260.282 43.6895 260.112 43.5295C260.462 43.5295 261.002 43.5295 261.352 43.5295C261.142 43.6495 261.192 43.8296 261.172 44.1096V48.4294H260.302L257.302 44.6995V47.8296C257.302 48.1196 257.302 48.2594 257.482 48.4194L256.582 48.4094Z" fill="#52545B"></path><path d="M263.111 48.4094H262.801C262.981 48.2694 262.961 48.0996 262.981 47.8196V44.1096C262.981 43.8296 262.981 43.6695 262.801 43.5195H264.171C263.981 43.6695 264.001 43.8296 263.991 44.1096V47.8196C263.991 48.0996 263.991 48.2694 264.171 48.4094H263.111Z" fill="#52545B"></path><path d="M268.14 48.5091C267.653 48.5556 267.163 48.4645 266.725 48.2462C266.288 48.0278 265.921 47.6911 265.665 47.2743C265.41 46.8574 265.277 46.3771 265.281 45.8883C265.286 45.3994 265.427 44.9215 265.69 44.5091C266.61 42.9391 268.84 43.2692 270.31 43.8192L269.81 44.7291C269.35 44.0491 267.96 44.0292 267.27 44.3492C266.37 44.7292 266.27 46.0692 266.66 46.8392C266.852 47.1089 267.109 47.3264 267.407 47.4722C267.704 47.6181 268.033 47.6878 268.365 47.6749C268.696 47.662 269.019 47.5668 269.304 47.3983C269.589 47.2297 269.828 46.9929 270 46.7091L270.46 47.5792C270.162 47.8919 269.801 48.1367 269.401 48.2972C269.001 48.4577 268.57 48.53 268.14 48.5091Z" fill="#52545B"></path><path d="M276.079 47.9399C276.179 48.1699 276.209 48.2899 276.369 48.3899H275.059C275.299 48.1999 274.859 47.5601 274.809 47.3201H272.259C272.209 47.5501 271.729 48.2399 272.029 48.3899H270.719C270.969 48.3899 272.519 44.2 272.719 43.95C272.919 43.7 272.869 43.61 272.719 43.5H274.509C274.379 43.62 274.429 43.74 274.509 43.95L276.079 47.9399ZM273.499 44.0701L272.499 46.6001H274.499L273.499 44.0701Z" fill="#52545B"></path><path d="M279.699 48.5091C279.213 48.5536 278.725 48.461 278.289 48.2418C277.853 48.0226 277.487 47.6856 277.233 47.2691C276.979 46.8526 276.847 46.3732 276.852 45.8853C276.856 45.3975 276.998 44.9208 277.259 44.5091C278.179 42.9391 280.409 43.2692 281.879 43.8192L281.379 44.7291C280.919 44.0491 279.529 44.0292 278.839 44.3492C277.939 44.7292 277.839 46.0692 278.219 46.8392C278.412 47.1089 278.669 47.3264 278.966 47.4722C279.264 47.6181 279.593 47.6878 279.924 47.6749C280.256 47.662 280.579 47.5668 280.864 47.3983C281.149 47.2297 281.388 46.9929 281.559 46.7091L282.019 47.5792C281.722 47.8919 281.361 48.1367 280.961 48.2972C280.56 48.4577 280.13 48.53 279.699 48.5091Z" fill="#52545B"></path><path d="M283.239 48.4094H282.969C283.149 48.2694 283.129 48.0996 283.149 47.8196V44.1096C283.149 43.8296 283.149 43.6695 282.969 43.5195H284.339C284.149 43.6695 284.169 43.8296 284.159 44.1096V47.8196C284.159 48.0996 284.159 48.2694 284.339 48.4094H283.239Z" fill="#52545B"></path><path d="M288.179 48.5212C284.539 48.7712 284.529 43.1213 288.179 43.3713C291.799 43.1313 291.789 48.7612 288.179 48.5212ZM288.179 47.7112C290.329 47.8812 290.339 44.0112 288.179 44.1912C285.969 44.0012 285.969 47.8712 288.179 47.7112Z" fill="#52545B"></path><path d="M292.361 48.4094H292.051C292.231 48.2694 292.211 48.0996 292.221 47.8196V44.1096C292.221 43.8296 292.221 43.6695 292.051 43.5195H293.361L296.071 46.8794V44.1294C296.071 43.8394 296.071 43.6895 295.901 43.5295C296.251 43.5295 296.801 43.5295 297.141 43.5295C296.931 43.6495 296.981 43.8296 296.961 44.1096V48.4294H296.101L293.101 44.6995V47.8296C293.101 48.1196 293.101 48.2594 293.281 48.4194L292.361 48.4094Z" fill="#52545B"></path><path d="M298.888 48.4094H298.578C298.768 48.2694 298.748 48.0996 298.758 47.8196V44.1096C298.758 43.8296 298.758 43.6695 298.578 43.5195H302.968C302.968 43.7295 302.838 44.2394 302.778 44.4294C302.638 44.2394 302.438 44.2595 302.128 44.2495H299.768V45.5796H301.768C302.038 45.5796 302.208 45.5794 302.348 45.4194V46.4194C302.178 46.1094 300.118 46.3195 299.778 46.2595V47.6895H302.168C302.468 47.6895 302.658 47.6895 302.808 47.5195L302.948 48.4395L298.888 48.4094Z" fill="#52545B"></path><path d="M305.972 48.5308C305.088 48.5748 304.217 48.3057 303.512 47.7707L303.902 46.8708C304.212 47.8708 307.202 48.2607 307.282 46.9707C307.282 46.5707 306.962 46.3908 306.612 46.3208C305.842 46.1208 304.672 46.2108 304.082 45.6008C303.082 44.2308 304.632 43.2408 306.082 43.3708C306.84 43.423 307.587 43.5811 308.302 43.8408L307.832 44.7107C307.452 43.8707 304.092 43.7108 305.022 45.1108C305.892 45.6208 307.322 45.2408 308.022 46.0408C309.142 47.4908 307.602 48.6708 305.972 48.5308Z" fill="#52545B"></path><path d="M161.97 56.8799H161.651C161.981 56.6799 161.78 55.36 161.83 55C161.55 54.7 159.83 52.14 159.48 52H160.97C160.82 52.11 160.97 52.2299 161.05 52.4099L162.34 54.1599L163.641 52.4099C163.751 52.2299 163.86 52.12 163.73 52H165.18C164.9 52.13 163.08 54.74 162.83 55V56.28C162.83 56.57 162.83 56.7399 163.01 56.8799H161.97Z" fill="#52545B"></path><path d="M172.19 57.0004C168.04 57.2904 168.02 50.5105 172.19 50.8105C176.35 50.5305 176.33 57.3004 172.19 57.0004ZM172.19 56.1005C174.84 56.3105 174.85 51.5004 172.19 51.7104C169.51 51.5104 169.52 56.3305 172.19 56.1105V56.1005Z" fill="#52545B"></path><path d="M176.861 56.8797H176.551C176.731 56.7297 176.711 56.5698 176.721 56.2798V52.5799C176.721 52.2999 176.721 52.1298 176.551 51.9898C177.631 52.0498 179.831 51.7899 180.711 52.3099C180.931 52.4353 181.102 52.6325 181.195 52.8685C181.287 53.1045 181.297 53.3651 181.221 53.607C181.145 53.8489 180.988 54.0574 180.777 54.1981C180.566 54.3387 180.313 54.4027 180.061 54.3797C181.391 54.3797 182.061 55.8699 180.891 56.5599C180.141 57.0499 177.841 56.8397 176.861 56.8797ZM179.061 54.0999C179.891 54.1999 180.731 53.4299 179.921 52.8499C179.511 52.5599 178.261 52.6897 177.741 52.6597V54.0999H179.061ZM179.061 56.1798C179.971 56.2798 180.971 55.5697 180.061 54.8997C179.297 54.7058 178.505 54.6449 177.721 54.7198V56.1798H179.061Z" fill="#52545B"></path><path d="M182.879 56.8817H182.559C182.749 56.7317 182.729 56.5718 182.739 56.2818V52.5819C182.739 52.3019 182.739 52.1318 182.559 51.9918C183.659 52.0518 185.969 51.7719 186.819 52.3619C187.044 52.511 187.217 52.7264 187.315 52.9786C187.412 53.2308 187.428 53.5071 187.361 53.7689C187.294 54.0307 187.147 54.2652 186.94 54.4396C186.734 54.6139 186.478 54.7196 186.209 54.7418C187.389 54.9118 187.009 56.2217 187.509 56.9117H186.319L186.119 55.8419C185.949 54.8419 184.479 55.2317 183.739 55.1417C183.739 55.4917 183.599 56.7017 183.909 56.9017H182.909L182.879 56.8817ZM185.169 54.3917C186.169 54.5217 186.799 53.5517 186.039 52.9217C185.629 52.6017 184.289 52.7418 183.749 52.7118V54.3917H185.169Z" fill="#52545B"></path><path d="M193.389 56.4204C193.489 56.6404 193.519 56.7606 193.679 56.8706H192.359C192.599 56.6806 192.159 56.0405 192.109 55.7905H189.559C189.559 56.0305 189.029 56.7106 189.329 56.8706H187.969C188.219 56.8706 189.769 52.6704 189.969 52.4304C190.169 52.1904 190.109 52.0905 189.969 51.9805H191.759C191.619 52.0905 191.679 52.2204 191.759 52.4304L193.389 56.4204ZM190.809 52.5505L189.809 55.0706H191.809L190.809 52.5505Z" fill="#52545B"></path><path d="M196.358 57.0019C195.473 57.0558 194.599 56.7856 193.898 56.2419L194.278 55.352C194.588 56.352 197.578 56.7418 197.658 55.4418C197.658 55.0518 197.338 54.8719 196.988 54.7919C196.208 54.5919 194.988 54.682 194.458 54.082C193.458 52.702 195.008 51.722 196.458 51.842C197.216 51.9022 197.963 52.0636 198.678 52.3219L198.208 53.1818C197.818 52.3518 194.468 52.182 195.398 53.592C196.268 54.092 197.698 53.7219 198.398 54.5219C199.488 56.0019 197.968 57.1419 196.358 57.0019Z" fill="#52545B"></path><path d="M203.669 56.8814H203.289C203.499 56.6814 203.469 56.5114 203.489 56.1614V51.7015C203.489 51.3515 203.489 51.1715 203.289 50.9815C203.469 50.9815 205.629 50.9815 205.869 50.9815C206.634 50.9306 207.398 51.1006 208.069 51.4715C208.296 51.6591 208.478 51.8945 208.603 52.1607C208.728 52.4269 208.793 52.7174 208.793 53.0115C208.793 53.3056 208.728 53.5962 208.603 53.8623C208.478 54.1285 208.296 54.3639 208.069 54.5516C207.429 55.1116 205.619 55.0816 204.589 55.0616C204.639 55.5116 204.439 56.5814 204.789 56.9014H203.669V56.8814ZM205.829 54.1714C206.306 54.2023 206.782 54.1056 207.209 53.8914C207.352 53.7864 207.468 53.6493 207.548 53.4913C207.628 53.3332 207.669 53.1586 207.669 52.9815C207.669 52.8044 207.628 52.6298 207.548 52.4717C207.468 52.3136 207.352 52.1766 207.209 52.0716C206.363 51.8037 205.472 51.7118 204.589 51.8016V54.1714H205.829Z" fill="#52545B"></path><path d="M212.312 56.999C209.232 57.059 210.042 54.6691 209.942 52.5991C209.942 52.3191 209.942 52.149 209.762 52.009H211.162C210.962 52.149 210.992 52.3091 210.982 52.5991V55.1689C210.982 55.9689 211.472 56.1689 212.292 56.1689C213.112 56.1689 213.592 55.9589 213.612 55.1689V52.5991C213.612 52.3091 213.612 52.149 213.432 52.009H214.752C214.552 52.149 214.582 52.3091 214.572 52.5991C214.502 54.5791 215.322 56.999 212.312 56.999ZM211.372 51.2891L212.462 50.1289H213.582L212.132 51.2891H211.372Z" fill="#52545B"></path><path d="M216.299 56.8797H215.969C216.159 56.7297 216.139 56.5698 216.149 56.2798V52.5799C216.149 52.2999 216.149 52.1298 215.969 51.9898C217.039 52.0498 219.239 51.7899 220.119 52.3099C220.338 52.4352 220.508 52.6313 220.6 52.866C220.693 53.1008 220.703 53.3603 220.628 53.6014C220.554 53.8425 220.399 54.0509 220.19 54.1924C219.981 54.334 219.73 54.3999 219.479 54.3797C220.809 54.3797 221.479 55.8699 220.309 56.5599C219.579 57.0499 217.269 56.8397 216.299 56.8797ZM218.499 54.0999C219.319 54.1999 220.159 53.4299 219.349 52.8499C218.939 52.5599 217.699 52.6897 217.179 52.6597V54.0999H218.499ZM218.499 56.1798C219.409 56.2798 220.399 55.5697 219.499 54.8997C218.735 54.7058 217.943 54.6449 217.159 54.7198V56.1798H218.499Z" fill="#52545B"></path><path d="M222.309 56.8821H221.969C222.149 56.7321 222.139 56.5722 222.149 56.2822V52.5823C222.149 52.3023 222.149 52.1322 221.969 51.9922H223.329C223.139 52.1322 223.169 52.2923 223.149 52.5823V56.0723H225.209C225.519 56.0723 225.729 56.0721 225.869 55.9021L225.969 56.9021L222.309 56.8821Z" fill="#52545B"></path><path d="M227.189 56.8821H226.859C227.049 56.7321 227.029 56.5722 227.039 56.2822V52.5823C227.039 52.3023 227.039 52.1322 226.859 51.9922H228.239C228.059 52.1322 228.079 52.3023 228.069 52.5823V56.2822C228.069 56.5722 228.069 56.7321 228.239 56.8821H227.179H227.189Z" fill="#52545B"></path><path d="M232.209 57.0012C231.723 57.0438 231.235 56.9502 230.8 56.7309C230.365 56.5116 230 56.1753 229.745 55.7597C229.491 55.3442 229.357 54.8659 229.359 54.3786C229.362 53.8913 229.5 53.4142 229.759 53.0012C230.679 51.4312 232.919 51.7712 234.389 52.3112L233.889 53.2311C233.548 52.9282 233.126 52.731 232.675 52.6635C232.224 52.596 231.763 52.6613 231.349 52.8513C230.449 53.2313 230.349 54.5713 230.729 55.3413C230.922 55.6104 231.179 55.8273 231.477 55.9724C231.776 56.1174 232.105 56.1859 232.436 56.1721C232.768 56.1582 233.09 56.0622 233.375 55.8928C233.66 55.7233 233.898 55.4856 234.069 55.2011L234.529 56.0712C234.229 56.3803 233.867 56.6227 233.467 56.7829C233.068 56.9431 232.639 57.0175 232.209 57.0012Z" fill="#52545B"></path><path d="M240.152 56.4204C240.262 56.6404 240.292 56.7606 240.452 56.8706H239.132C239.372 56.6806 238.932 56.0405 238.872 55.7905H236.332C236.332 56.0305 235.802 56.7106 236.092 56.8706H234.762C235.022 56.8706 236.572 52.6704 236.762 52.4304C236.952 52.1904 236.902 52.0905 236.762 51.9805H238.552C238.412 52.0905 238.472 52.2204 238.552 52.4304L240.152 56.4204ZM237.582 52.5505L236.582 55.0706H238.582L237.582 52.5505Z" fill="#52545B"></path><path d="M243.13 57.0019C242.242 57.0555 241.365 56.7855 240.66 56.2419L241.05 55.352C241.36 56.352 244.35 56.7418 244.43 55.4418C244.43 55.0518 244.1 54.8719 243.75 54.7919C242.98 54.5919 241.81 54.682 241.23 54.082C240.23 52.702 241.78 51.722 243.23 51.842C243.988 51.9022 244.735 52.0636 245.45 52.3219L244.97 53.1818C244.58 52.3518 241.23 52.182 242.15 53.592C243.03 54.092 244.46 53.7219 245.15 54.5219C246.26 56.0019 244.73 57.1419 243.13 57.0019Z" fill="#52545B"></path><path d="M250.259 56.8788H249.969C250.159 56.7288 250.139 56.569 250.149 56.279V52.579C250.149 52.299 250.149 52.1289 249.969 51.9889C251.499 52.0389 253.729 51.669 254.679 53.099C254.868 53.3905 254.992 53.719 255.044 54.0624C255.095 54.4059 255.073 54.7563 254.978 55.0905C254.884 55.4246 254.719 55.7348 254.495 56.0002C254.271 56.2655 253.992 56.4796 253.679 56.6288C252.563 56.9142 251.405 56.9988 250.259 56.8788ZM251.949 56.079C252.348 56.1693 252.767 56.1095 253.125 55.9113C253.484 55.713 253.757 55.3902 253.892 55.0038C254.028 54.6175 254.017 54.1947 253.862 53.8158C253.706 53.437 253.417 53.1284 253.049 52.9489C252.435 52.7765 251.794 52.7156 251.159 52.7689V56.079H251.949Z" fill="#52545B"></path><path d="M256.531 56.8821H256.211C256.401 56.7321 256.381 56.5722 256.391 56.2822V52.5823C256.391 52.3023 256.391 52.1322 256.211 51.9922H260.601C260.601 52.2022 260.471 52.7021 260.421 52.9021C260.271 52.7021 260.071 52.7322 259.761 52.7122H257.401V54.0522H259.401C259.671 54.0522 259.841 54.0521 259.991 53.8921V54.8921C259.811 54.5721 257.761 54.7822 257.411 54.7322V56.1621H259.801C260.101 56.1621 260.291 56.1622 260.441 55.9822L260.581 56.8921L256.531 56.8821Z" fill="#52545B"></path><path d="M262.06 56.8821H261.75C261.93 56.7321 261.92 56.5722 261.93 56.2822V52.5823C261.93 52.3023 261.93 52.1322 261.75 51.9922H263.11C262.92 52.1322 262.95 52.2923 262.93 52.5823V56.0723H264.97C265.28 56.0723 265.49 56.0721 265.63 55.9021L265.73 56.9021L262.06 56.8821Z" fill="#52545B"></path><path d="M270.419 56.8804H270.039C270.249 56.6804 270.229 56.5104 270.239 56.1604V51.7004C270.239 51.3504 270.239 51.1705 270.039 50.9805H275.039C274.989 51.2305 274.899 51.8005 274.869 52.0405C274.679 51.8005 274.459 51.8305 274.069 51.8105H271.339V53.5105H273.609C273.969 53.5105 274.149 53.5105 274.339 53.2905V54.4604C274.139 54.2504 273.969 54.2605 273.609 54.2505H271.339V56.0605H274.109C274.479 56.0605 274.699 56.0606 274.889 55.8406C274.889 56.0706 275.009 56.6506 275.039 56.8406L270.419 56.8804Z" fill="#52545B"></path><path d="M278.15 57.0019C277.262 57.0555 276.384 56.7855 275.68 56.2419L276.07 55.352C276.38 56.352 279.37 56.7418 279.45 55.4418C279.45 55.0518 279.12 54.8719 278.77 54.7919C278 54.5919 276.83 54.682 276.25 54.082C275.25 52.702 276.8 51.722 278.25 51.842C279.008 51.9022 279.754 52.0636 280.47 52.3219L279.99 53.1818C279.6 52.3518 276.25 52.182 277.17 53.592C278.05 54.092 279.48 53.7219 280.17 54.5219C281.28 56.0019 279.75 57.1419 278.15 57.0019Z" fill="#52545B"></path><path d="M283.211 56.8792H282.901C283.101 56.7392 283.061 56.5693 283.071 56.2793V52.7893H281.811C281.551 52.7893 281.401 52.7892 281.291 52.9492L281.121 51.9492H286.121C286.121 52.1392 285.971 52.7492 285.931 52.9492C285.821 52.7692 285.661 52.8093 285.401 52.7893H284.131V56.2793C284.131 56.5693 284.131 56.7292 284.311 56.8792H283.211Z" fill="#52545B"></path><path d="M291.718 56.4204C291.818 56.6404 291.848 56.7606 292.008 56.8706H290.688C290.928 56.6806 290.498 56.0405 290.438 55.7905H287.898C287.838 56.0305 287.358 56.7106 287.658 56.8706H286.328C286.578 56.8706 288.128 52.6704 288.328 52.4304C288.528 52.1904 288.478 52.0905 288.328 51.9805H290.108C289.978 52.0905 290.028 52.2204 290.108 52.4304L291.718 56.4204ZM289.138 52.5505L288.138 55.0706H290.138L289.138 52.5505Z" fill="#52545B"></path><path d="M293.109 56.8788H292.789C292.979 56.7288 292.959 56.569 292.969 56.279V52.579C292.969 52.299 292.969 52.1289 292.789 51.9889C294.319 52.0389 296.549 51.669 297.499 53.099C297.686 53.3937 297.808 53.7249 297.856 54.0707C297.904 54.4165 297.878 54.7686 297.778 55.1032C297.679 55.4378 297.509 55.7472 297.279 56.0104C297.05 56.2736 296.767 56.4844 296.449 56.6288C295.358 56.9048 294.228 56.9894 293.109 56.8788ZM294.799 56.079C295.199 56.1693 295.617 56.1095 295.976 55.9113C296.334 55.713 296.607 55.3902 296.743 55.0038C296.878 54.6175 296.867 54.1947 296.712 53.8158C296.556 53.437 296.267 53.1284 295.899 52.9489C295.285 52.7756 294.645 52.7147 294.009 52.7689V56.079H294.799Z" fill="#52545B"></path><path d="M301.531 57.0002C297.891 57.2602 297.881 51.6003 301.531 51.8603C305.161 51.6003 305.141 57.2402 301.531 57.0002ZM301.531 56.1901C303.681 56.3701 303.691 52.4901 301.531 52.6701C299.331 52.4801 299.351 56.3501 301.531 56.1801V56.1901Z" fill="#52545B"></path><path d="M143.87 37.9196C139.18 37.8596 134.08 37.1697 130.07 35.0697L132.53 28.6396H132.67C134.06 32.0496 139.67 32.6397 143.16 32.7297C146.25 32.5897 149.89 32.7296 150.16 29.9196C150.185 29.5454 150.111 29.1714 149.946 28.8346C149.781 28.4978 149.531 28.2099 149.22 27.9997C146.22 26.2897 140.31 26.9997 137.22 25.9997C135.791 25.6876 134.471 24.9968 133.4 23.9997C131.3 22.1397 131.25 17.2696 133.4 15.1796C136.4 12.1796 140.71 11.8397 145.4 11.7497C149.73 11.5697 153.54 13.0296 157.67 13.4196V13.4897L154.79 19.4897H154.65C153.49 16.3397 139.39 14.8696 139.18 18.9196C139.43 21.7696 143.32 21.2796 145.87 21.6596C150.04 22.0996 153.14 21.9696 156.02 24.6596C158.25 26.6596 158.33 32.0498 156.16 34.3298C153.21 37.4798 148.73 37.8096 143.87 37.9196Z" fill="#52545B"></path><path d="M166.969 37.2808H164.969V37.1707C165.969 36.3407 165.899 35.5206 165.969 33.9006V15.7708C165.909 14.1508 165.969 13.3207 164.969 12.4907V12.3906H190.359C190.099 13.7606 189.469 17.1707 189.259 18.5007H189.149C188.339 17.3807 187.149 17.5007 185.489 17.4307H173.189V22.3008H183.539C185.159 22.2308 186.039 22.3608 186.849 21.3008H186.949V27.7007H186.849C186.039 26.6207 185.199 26.7007 183.569 26.7007H173.169V32.1108H185.609C187.239 32.0308 188.399 32.1108 189.199 31.1108H189.309C189.589 32.4208 190.129 35.8907 190.309 37.2607L166.969 37.2808Z" fill="#52545B"></path><path d="M212.631 37.9196C206.631 37.8596 201.441 36.6596 198.381 31.9796C195.971 28.3296 195.931 21.2895 198.381 17.6295C202.011 12.0195 209.921 11.3096 216.531 11.9396C219.631 12.1896 222.301 13.2896 225.301 13.4196V13.4896L222.171 20.1395H222.071C220.521 17.9695 216.341 17.4395 213.531 17.3995C210.091 17.3995 206.971 18.0098 205.131 20.6198C203.681 22.6798 203.771 26.6196 205.131 28.7096C208.621 33.9496 219.891 33.0098 222.871 27.6098H223.051L225.931 34.1098C222.571 36.8598 217.291 37.9096 212.631 37.9196Z" fill="#52545B"></path><path d="M246.799 37.9215C238.169 38.1415 231.149 33.8215 231.409 24.7315C231.159 15.7315 238.269 11.5315 246.799 11.7315C255.329 11.5015 262.399 15.7315 262.159 24.7315C262.399 33.7815 255.439 38.1615 246.799 37.9215ZM246.799 32.2616C251.509 32.4716 254.909 29.4915 254.729 24.7315C254.919 19.9915 251.399 17.2215 246.799 17.4015C242.179 17.2115 238.639 19.9715 238.799 24.7315C238.619 29.5315 242.109 32.4616 246.799 32.2616Z" fill="#52545B"></path><path d="M271.762 37.2808H269.762V37.1707C270.762 36.3407 270.692 35.5206 270.762 33.9006V15.7708C270.692 14.1508 270.762 13.3207 269.762 12.4907V12.3906C270.712 12.3906 282.122 12.3906 283.412 12.3906C288.445 12.3906 292.145 13.0941 294.512 14.5007C299.342 17.0107 299.162 25.5008 294.512 28.0308C292.138 29.4974 288.438 30.2341 283.412 30.2407H278.152V33.9006C278.212 35.5106 278.152 36.3307 279.152 37.1707V37.2808H271.762ZM283.282 24.9407C285.147 25.0478 287.012 24.737 288.742 24.0308C291.042 23.0308 291.242 19.4307 288.742 18.5007C286.742 17.5007 280.922 17.7607 278.182 17.7207V24.9407H283.282Z" fill="#52545B"></path><path d="M307.348 37.2808H305.348V37.1707C306.348 36.3407 306.268 35.5206 306.348 33.9006V15.7708C306.278 14.1508 306.398 13.3207 305.348 12.4907V12.3906H330.738C330.478 13.7606 329.848 17.1707 329.638 18.5007H329.528C328.708 17.3807 327.528 17.5007 325.868 17.4307H313.568V22.3008H323.918C325.538 22.2308 326.408 22.3608 327.218 21.3008H327.328V27.7007H327.218C326.418 26.6207 325.578 26.7007 323.948 26.7007H313.568V32.1108H326.018C327.638 32.0308 328.808 32.1108 329.608 31.1108H329.718C329.988 32.4208 330.538 35.8907 330.718 37.2607L307.348 37.2808Z" fill="#52545B"></path><path d="M3.0494 46.5713C2.83882 46.5374 2.62299 46.5717 2.43331 46.6692C2.24363 46.7668 2.09002 46.9225 1.99508 47.1135C1.90014 47.3045 1.86885 47.5209 1.9056 47.731C1.94236 47.9411 2.04528 48.1338 2.19943 48.2813C2.31272 48.3896 2.44994 48.4698 2.59994 48.5154C2.74993 48.561 2.90853 48.5705 3.06295 48.5435C3.21737 48.5165 3.36324 48.4537 3.48885 48.3599C3.61447 48.2661 3.71632 48.1441 3.7861 48.0037C3.85588 47.8633 3.89166 47.7085 3.89059 47.5518C3.88952 47.395 3.85156 47.2405 3.77987 47.1011C3.70818 46.9617 3.60476 46.8411 3.47787 46.749C3.35098 46.657 3.20418 46.5962 3.0494 46.5713ZM3.0494 47.7512C2.99803 47.849 2.91321 47.9252 2.81039 47.9656C2.70756 48.006 2.59367 48.0079 2.48947 47.9712C2.13947 47.8812 2.14947 47.4312 2.23947 47.1612C2.27841 47.0811 2.34023 47.0144 2.41708 46.9695C2.49392 46.9246 2.58226 46.9036 2.67111 46.909C2.75995 46.9143 2.8452 46.946 2.9161 46.9998C2.987 47.0536 3.04037 47.1271 3.06942 47.2112C3.13061 47.385 3.1376 47.5734 3.08944 47.7512H3.0494Z" fill="#BABAB3"></path><path d="M5.36863 47.9996H4.36863C4.61863 47.6596 5.17863 47.6696 5.36863 47.2696C5.61863 46.5296 4.47863 46.3695 3.99863 46.6595C3.98318 46.8024 3.98318 46.9468 3.99863 47.0897C4.18863 46.9397 4.99857 46.7395 4.92857 47.1695C4.69857 47.4395 4.30858 47.4896 4.06858 47.7496C3.98981 47.8318 3.93442 47.9335 3.90806 48.0443C3.88169 48.155 3.88527 48.2706 3.91856 48.3795C4.40856 48.3795 4.91857 48.3795 5.42857 48.3795C5.36857 48.2295 5.41863 48.0696 5.36863 47.9996Z" fill="#BABAB3"></path><path d="M7.14024 47.9994H6.14024C6.39024 47.6594 6.96024 47.6694 7.14024 47.2594C7.39024 46.5294 6.26026 46.3793 5.78026 46.6593C5.76481 46.8022 5.76481 46.9465 5.78026 47.0895C5.97026 46.9295 6.92017 46.7493 6.69017 47.2093C6.44017 47.4393 6.09021 47.4994 5.86021 47.7494C5.7806 47.8311 5.72387 47.9322 5.69579 48.0428C5.6677 48.1534 5.66921 48.2694 5.70018 48.3793C6.20018 48.3793 6.70019 48.3793 7.21019 48.3793C7.14019 48.2293 7.20024 48.0694 7.14024 47.9994Z" fill="#BABAB3"></path><path d="M1.44995 48.0001H0.449951C0.699951 47.6701 1.23995 47.6701 1.44995 47.2901C1.73995 46.5501 0.579966 46.36 0.0899658 46.67C0.0745127 46.8129 0.0745127 46.9573 0.0899658 47.1002C0.269966 46.9302 1.23 46.7501 1 47.2101C0.66 47.5101 0 47.6 0 48.15C0 48.23 0 48.33 0 48.38H1.48999C1.48999 48.29 1.48999 48.1401 1.48999 48.0301C1.48999 47.9201 1.46995 48.0001 1.44995 48.0001Z" fill="#BABAB3"></path><path d="M93.6011 47.5106C93.5272 47.4487 93.4424 47.4013 93.3511 47.3707C94.1311 46.9407 93.241 46.3706 92.661 46.5206C92.181 46.5206 91.8211 47.1805 92.3811 47.3805C92.2899 47.3964 92.2055 47.4394 92.1391 47.504C92.0728 47.5686 92.0275 47.6518 92.0091 47.7425C91.9908 47.8333 92.0002 47.9275 92.0362 48.0128C92.0723 48.0981 92.1332 48.1704 92.211 48.2206C92.721 48.6206 94.1611 48.3206 93.6011 47.5106ZM92.6011 46.9405C92.6952 46.8915 92.7999 46.8658 92.9061 46.8658C93.0123 46.8658 93.1169 46.8915 93.211 46.9405C93.471 47.3405 92.231 47.3205 92.571 46.9405H92.6011ZM93.181 47.9405C92.891 48.1105 92.1811 47.8806 92.6111 47.5306C92.8811 47.4106 93.6211 47.6106 93.1511 48.0006L93.181 47.9405Z" fill="#BABAB3"></path><path d="M89.3815 46.5713C89.1709 46.5374 88.955 46.5717 88.7653 46.6692C88.5756 46.7668 88.4222 46.9225 88.3272 47.1135C88.2323 47.3045 88.2009 47.5209 88.2376 47.731C88.2744 47.9411 88.3774 48.1338 88.5316 48.2813C88.6449 48.3896 88.782 48.4698 88.9319 48.5154C89.0819 48.561 89.2405 48.5705 89.395 48.5435C89.5494 48.5165 89.6954 48.4537 89.821 48.3599C89.9466 48.2661 90.0483 48.1441 90.1181 48.0037C90.1879 47.8633 90.2237 47.7085 90.2226 47.5518C90.2215 47.395 90.1837 47.2405 90.112 47.1011C90.0403 46.9617 89.9368 46.8411 89.8099 46.749C89.683 46.657 89.5363 46.5962 89.3815 46.5713ZM89.3815 47.7512C89.3301 47.8488 89.2446 47.924 89.1414 47.9627C89.0382 48.0014 88.9243 48.0009 88.8215 47.9612C88.4715 47.8812 88.4815 47.4312 88.5715 47.1612C88.6104 47.0811 88.6722 47.0144 88.7491 46.9695C88.8259 46.9246 88.9144 46.9036 89.0032 46.909C89.0921 46.9143 89.1773 46.946 89.2482 46.9998C89.3191 47.0536 89.3725 47.1271 89.4016 47.2112C89.4576 47.386 89.4645 47.5728 89.4214 47.7512H89.3815Z" fill="#BABAB3"></path><path d="M91.7009 47.9996H90.7009C90.9509 47.6596 91.5109 47.6696 91.7009 47.2696C91.9509 46.5296 90.8109 46.3695 90.3309 46.6595C90.3155 46.8024 90.3155 46.9468 90.3309 47.0897C90.5109 46.9497 91.331 46.7395 91.261 47.1695C91.031 47.4395 90.641 47.4896 90.401 47.7496C90.3248 47.8334 90.271 47.9351 90.2448 48.0453C90.2185 48.1554 90.2207 48.2703 90.251 48.3795C90.741 48.3795 91.251 48.3795 91.761 48.3795C91.701 48.2295 91.7509 48.0696 91.7009 47.9996Z" fill="#BABAB3"></path><path d="M87.7799 48.0005H86.7799C87.0299 47.6605 87.5699 47.6705 87.7799 47.2905C88.0599 46.5205 86.9098 46.3804 86.4298 46.6604C86.4097 46.803 86.4097 46.9479 86.4298 47.0905C86.6098 46.9305 87.5798 46.7504 87.3398 47.2104C86.9998 47.5104 86.3398 47.6004 86.3398 48.1604C86.3398 48.2304 86.3398 48.3403 86.3398 48.3803H87.8298C87.8298 48.2903 87.8298 48.1405 87.8298 48.0305C87.8298 47.9205 87.7999 48.0005 87.7799 48.0005Z" fill="#BABAB3"></path><path d="M23.7812 55.8125C24.067 55.8824 24.3655 55.8824 24.6512 55.8125C24.3655 55.8824 24.067 55.8824 23.7812 55.8125Z" fill="#BABAB3"></path><path d="M28.3593 54.7827L28.2293 54.7326C28.3188 54.7071 28.3989 54.656 28.4599 54.5857C28.5209 54.5154 28.5601 54.4288 28.5728 54.3367C28.5856 54.2445 28.5711 54.1508 28.5315 54.0666C28.4918 53.9825 28.4285 53.9116 28.3493 53.8628C27.7941 53.7238 27.2193 53.6797 26.6494 53.7326C26.5594 54.3826 26.6494 55.1628 26.6494 55.8428C27.2994 55.7728 28.5594 56.1626 28.6494 55.2226C28.6534 55.1281 28.6276 55.0348 28.5755 54.9558C28.5235 54.8768 28.4478 54.8162 28.3593 54.7827ZM27.1193 54.1626C27.3993 54.2126 27.9693 53.9928 28.0593 54.3528C27.9693 54.7128 27.3993 54.4927 27.1193 54.5427V54.1626ZM27.8794 55.4226H27.1193C27.1193 55.2726 27.0593 55.0526 27.1193 54.9426C27.4093 55.0026 27.9993 54.7826 28.1193 55.1526C28.1221 55.2199 28.0987 55.2858 28.0539 55.3362C28.0091 55.3865 27.9466 55.4175 27.8794 55.4226Z" fill="#BABAB3"></path><path d="M24.7883 53.7826C24.1783 53.5826 23.2983 53.7224 23.0983 54.4224C23.0498 54.5582 23.0288 54.7025 23.0368 54.8465C23.0449 54.9905 23.0817 55.1315 23.1451 55.2611C23.2085 55.3906 23.2971 55.5062 23.4058 55.6009C23.5146 55.6956 23.6414 55.7676 23.7784 55.8126C24.0675 55.9304 24.3896 55.9384 24.6843 55.8353C24.979 55.7321 25.2259 55.5249 25.3784 55.2525C25.4419 55.1181 25.477 54.972 25.4814 54.8233C25.4859 54.6747 25.4596 54.5268 25.4043 54.3888C25.3489 54.2508 25.2655 54.1256 25.1595 54.0213C25.0535 53.917 24.9271 53.8358 24.7883 53.7826ZM24.9083 55.0125C24.6383 55.7525 23.2984 55.4526 23.6084 54.5526C23.8984 53.8326 25.1983 54.1625 24.9083 55.0025V55.0125Z" fill="#BABAB3"></path><path d="M42.3292 53.7826C41.7192 53.5826 40.8392 53.7224 40.6492 54.4224C40.599 54.5575 40.5765 54.7013 40.5832 54.8453C40.5899 54.9892 40.6256 55.1303 40.6882 55.2601C40.7507 55.3899 40.8389 55.5058 40.9473 55.6007C41.0558 55.6956 41.1822 55.7678 41.3191 55.8126C41.6083 55.9304 41.9305 55.9384 42.2252 55.8353C42.5198 55.7321 42.7666 55.5249 42.9191 55.2525C42.9827 55.1181 43.0178 54.972 43.0223 54.8233C43.0267 54.6747 43.0004 54.5268 42.945 54.3888C42.8896 54.2508 42.8063 54.1256 42.7004 54.0213C42.5944 53.917 42.468 53.8358 42.3292 53.7826ZM42.4592 55.0125C42.1892 55.7525 40.8391 55.4526 41.1591 54.5526C41.4491 53.8326 42.7492 54.1625 42.4592 55.0025V55.0125Z" fill="#BABAB3"></path><path d="M36.0881 55.0498C36.2153 55.0034 36.3251 54.919 36.4027 54.8081C36.4803 54.6972 36.5218 54.565 36.5218 54.4297C36.5218 54.2944 36.4803 54.1624 36.4027 54.0515C36.3251 53.9406 36.2153 53.8562 36.0881 53.8098C35.5758 53.7282 35.0561 53.7013 34.5381 53.7298C34.4977 54.4325 34.4977 55.1371 34.5381 55.8399H35.0182V55.1497C35.2082 55.1497 35.4281 55.0997 35.5881 55.1497C35.7481 55.1997 35.8381 55.5698 35.9681 55.7798C36.0981 55.9898 36.3781 55.7798 36.5681 55.7798L36.0681 55.0098L36.0881 55.0498ZM35.8982 54.6297C35.7214 54.6895 35.5337 54.71 35.3481 54.6897C35.2381 54.6897 35.0582 54.7397 34.9982 54.6897V54.2498C35.1482 54.1498 35.4981 54.2498 35.7181 54.2498C35.761 54.2524 35.8024 54.2665 35.838 54.2905C35.8736 54.3146 35.902 54.3477 35.9204 54.3865C35.9388 54.4253 35.9464 54.4685 35.9425 54.5112C35.9386 54.554 35.9233 54.5948 35.8982 54.6297Z" fill="#BABAB3"></path><path d="M22.0378 54.5807H20.8879V54.9906H21.5579C21.5579 55.1106 21.6179 55.3008 21.4979 55.3608C21.2559 55.4504 20.9899 55.4504 20.7479 55.3608C20.6363 55.313 20.5412 55.2333 20.4744 55.132C20.4075 55.0307 20.3718 54.9121 20.3718 54.7907C20.3718 54.6693 20.4075 54.5505 20.4744 54.4491C20.5412 54.3478 20.6363 54.2684 20.7479 54.2206C20.9246 54.1687 21.1102 54.1545 21.2927 54.1786C21.4753 54.2027 21.6507 54.2648 21.8079 54.3608C21.8079 54.1908 21.8679 53.9707 21.8079 53.8407C21.4214 53.6914 20.9972 53.6703 20.5979 53.7807C20.3966 53.8556 20.2221 53.9887 20.0969 54.1633C19.9717 54.3378 19.9015 54.5457 19.895 54.7604C19.8886 54.9751 19.9463 55.1869 20.0608 55.3686C20.1753 55.5503 20.3414 55.6938 20.5378 55.7807C20.7788 55.8641 21.0357 55.8912 21.2888 55.86C21.5419 55.8288 21.7845 55.7402 21.9979 55.6008C22.0411 55.2626 22.0544 54.9213 22.0378 54.5807Z" fill="#BABAB3"></path><path d="M39.1809 53.7401V55.0001C38.5209 54.2401 38.5809 53.59 37.7109 53.73V55.8402H38.1709V54.41C38.7109 54.97 38.951 56.0002 39.601 55.8402V53.7401H39.1809Z" fill="#BABAB3"></path><path d="M32.8612 55.4089C32.6412 55.4089 32.2412 55.4789 32.1412 55.4089V55.0491H33.1412V54.5991C32.8512 54.5991 32.3512 54.6791 32.1412 54.5491C32.1412 54.4491 32.0812 54.259 32.1412 54.219H33.2012C33.2012 54.219 33.2012 54.2189 33.2012 54.1689V53.7891H31.5312V55.8889H33.2312V55.459L32.8612 55.4089Z" fill="#BABAB3"></path><path d="M29.8582 53.7305C29.8077 54.4329 29.8077 55.1382 29.8582 55.8406H30.3582V53.7305H29.8582Z" fill="#BABAB3"></path><path d="M46.9702 53.7422H45.9102V55.8523C46.5202 55.8523 47.2502 56.0022 47.7202 55.5122C47.8556 55.3623 47.9454 55.1769 47.979 54.9778C48.0126 54.7786 47.9885 54.5739 47.9097 54.3879C47.8309 54.202 47.7006 54.0424 47.5342 53.928C47.3677 53.8136 47.1721 53.7491 46.9702 53.7422ZM47.4003 55.0923C47.2203 55.4623 46.7603 55.3723 46.4003 55.3723V54.2122C46.9703 54.1122 47.6602 54.3623 47.3602 55.0923H47.4003Z" fill="#BABAB3"></path><path d="M60.7789 54.6906C60.4589 54.4906 60.0389 54.5706 59.6989 54.4206C59.3689 53.9606 60.6989 54.1407 60.8689 54.3107C60.8689 54.1607 60.9588 53.8407 60.7888 53.8007C60.3558 53.6654 59.8919 53.6654 59.4589 53.8007C59.3631 53.8446 59.282 53.9149 59.2251 54.0036C59.1682 54.0922 59.1381 54.1954 59.1381 54.3007C59.1381 54.406 59.1682 54.5092 59.2251 54.5978C59.282 54.6864 59.3631 54.7568 59.4589 54.8007C59.7689 54.9307 60.1289 54.8606 60.4589 55.0006C60.8289 55.5906 59.3589 55.3905 59.1289 55.1605C59.1289 55.3405 59.1289 55.5506 59.1289 55.7006C59.4178 55.802 59.7229 55.8496 60.0289 55.8407C60.6989 56.0007 61.4589 55.2206 60.7789 54.6906Z" fill="#BABAB3"></path><path d="M57.799 55.4102C57.4235 55.451 57.0446 55.451 56.669 55.4102C56.669 55.2802 56.669 55.1603 56.669 55.0403C56.979 55.0403 57.399 55.1203 57.669 55.0403C57.669 54.9003 57.669 54.7701 57.669 54.6301H56.669V54.2502H57.829C57.829 54.1402 57.889 53.8503 57.829 53.8203H56.2491C56.2034 54.5229 56.2034 55.2276 56.2491 55.9302H57.949V55.5403C57.859 55.4103 57.859 55.4102 57.799 55.4102Z" fill="#BABAB3"></path><path d="M50.3308 55.4089C50.1208 55.4089 49.7208 55.4889 49.6108 55.4089C49.5008 55.3289 49.6108 55.1691 49.6108 55.0491H50.6108V54.5991C50.3308 54.5991 49.8308 54.6791 49.6108 54.5491C49.6108 54.4591 49.5608 54.219 49.6708 54.219H50.6708C50.7308 54.219 50.7308 54.2189 50.7308 54.1689V53.7891H49.0508V55.8989H50.7509V55.459L50.3308 55.4089Z" fill="#BABAB3"></path><path d="M63.9686 53.7828C63.3027 53.7391 62.6346 53.7391 61.9686 53.7828C61.9686 53.9028 61.8986 54.1827 61.9686 54.2327H62.6387C62.6847 54.7851 62.6847 55.3403 62.6387 55.8926H63.1487V54.2327C63.3787 54.2327 63.7686 54.3027 63.9186 54.1827C63.9227 54.0481 63.9395 53.9143 63.9686 53.7828Z" fill="#BABAB3"></path><path d="M52.5083 55.3193V53.7893C52.5083 53.6793 52.1183 53.7892 51.9883 53.7392V55.8494H53.4783V55.3791H52.4783L52.5083 55.3193Z" fill="#BABAB3"></path><path d="M73.4796 54.5001C73.3881 54.2698 73.2311 54.0715 73.0282 53.9293C72.8253 53.7871 72.5853 53.7072 72.3376 53.6998C72.09 53.6924 71.8455 53.7575 71.6344 53.8873C71.4233 54.017 71.2549 54.2057 71.1497 54.43C71.0873 54.6044 71.0703 54.792 71.1005 54.9747C71.1306 55.1574 71.2068 55.3293 71.3219 55.4744C71.437 55.6196 71.5871 55.7328 71.7582 55.8038C71.9292 55.8748 72.1156 55.901 72.2996 55.88C72.4768 55.8967 72.6555 55.8708 72.8206 55.804C72.9856 55.7373 73.1321 55.6317 73.2478 55.4964C73.3635 55.3611 73.445 55.1999 73.4853 55.0265C73.5257 54.8531 73.5237 54.6726 73.4796 54.5001ZM72.9496 55.0101C72.6896 55.7501 71.3395 55.4501 71.6595 54.5501C71.9695 53.8301 73.2496 54.1601 72.9696 55.0001L72.9496 55.0101Z" fill="#BABAB3"></path><path d="M69.0687 53.7422H67.9688V55.8523C68.6087 55.8523 69.4288 56.0121 69.8688 55.4221C69.9771 55.2671 70.0424 55.0862 70.058 54.8977C70.0736 54.7093 70.0389 54.5201 69.9576 54.3494C69.8763 54.1786 69.7512 54.0324 69.5951 53.9258C69.4389 53.8191 69.2573 53.7558 69.0687 53.7422ZM69.4187 55.2122C69.1787 55.4522 68.8188 55.3721 68.5288 55.3821V54.2122C68.8188 54.2122 69.1787 54.1423 69.4187 54.3723C69.5181 54.4897 69.5726 54.6384 69.5726 54.7922C69.5726 54.946 69.5181 55.0948 69.4187 55.2122Z" fill="#BABAB3"></path><path d="M66.1216 53.7705C65.9516 53.6805 65.6916 53.7705 65.4916 53.7705C65.4916 53.7705 65.4915 53.7705 65.4315 53.7705C65.1515 54.4605 64.8716 55.1505 64.6016 55.8405H65.1216C65.1902 55.7126 65.2471 55.5786 65.2915 55.4404C65.5904 55.4047 65.8926 55.4047 66.1915 55.4404C66.3115 55.5104 66.3116 55.7105 66.3816 55.8305C66.4516 55.9505 66.7715 55.8305 66.9515 55.8305C66.6815 55.1505 66.4016 54.4605 66.1216 53.7705ZM65.4615 54.9904L65.7616 54.1804L66.0715 54.9904H65.4615Z" fill="#BABAB3"></path><path d="M9.1781 51.5728H8.57812C8.88813 51.3228 8.85817 51.0728 8.87817 50.5728V45.0728C8.87817 44.5728 8.87813 44.3228 8.57812 44.0728C10.4281 44.1328 13.4982 43.8527 15.1282 44.5027C18.3582 45.4127 18.3282 50.2726 15.1282 51.1926C13.7482 51.7426 10.7981 51.5428 9.1781 51.5728ZM12.2682 49.8826C12.7604 49.9352 13.2579 49.8724 13.7214 49.6987C14.185 49.5251 14.6016 49.2456 14.9381 48.8826C15.1079 48.629 15.2175 48.3399 15.2583 48.0374C15.2991 47.7349 15.2701 47.427 15.1736 47.1375C15.0771 46.8479 14.9156 46.5842 14.7014 46.3667C14.4873 46.1492 14.2261 45.9836 13.9381 45.8826C13.0263 45.6575 12.085 45.5765 11.1482 45.6426V49.8328L12.2682 49.8826Z" fill="#52545B"></path><path d="M24.0812 51.74C19.0812 51.74 19.8812 48.74 19.8412 45.04C19.8412 44.54 19.8413 44.29 19.5312 44.04H22.4211C22.1111 44.29 22.1412 44.54 22.1212 45.04V48.5901C22.1212 49.7401 22.8712 49.97 24.0612 49.99C25.2512 50.01 25.9912 49.7501 26.0612 48.5901V45C26.0612 44.5 26.0612 44.25 25.7512 44H28.4612C28.1312 44.25 28.1712 44.5 28.1512 45C28.1012 48.56 28.9712 51.76 24.0812 51.74Z" fill="#52545B"></path><path d="M31.36 51.5724H30.75C31.07 51.3224 31.0299 51.0724 31.0499 50.5724V45.0724C31.0499 44.5724 31.05 44.3224 30.75 44.0724C32.46 44.1424 36.06 43.8824 37.62 44.3224C38.1504 44.3542 38.6465 44.5954 38.999 44.993C39.3516 45.3906 39.5318 45.9118 39.5 46.4422C39.4682 46.9727 39.2269 47.4688 38.8293 47.8214C38.4318 48.174 37.9104 48.3542 37.38 48.3224C38.18 48.5124 38.72 48.8023 38.9 49.5523C39.08 50.0723 39.19 51.2924 39.64 51.6124H37.08C36.91 51.1124 36.8399 49.6122 36.3199 49.3822C35.7999 49.1522 33.84 49.2222 33.24 49.1722C33.31 49.7422 33.0299 51.2524 33.5499 51.5724H31.36ZM35.46 47.5724C35.873 47.5996 36.2862 47.5204 36.6599 47.3424C36.7795 47.2619 36.8776 47.153 36.9453 47.0257C37.0131 46.8984 37.0486 46.7566 37.0486 46.6124C37.0486 46.4682 37.0131 46.3261 36.9453 46.1988C36.8776 46.0715 36.7795 45.9627 36.6599 45.8822C36.0899 45.5022 33.99 45.6922 33.24 45.6522V47.5724H35.46Z" fill="#52545B"></path><path d="M41.7612 51.572H41.0312C41.3313 51.402 41.4012 51.192 41.5812 50.792L44.2012 44.8721C44.3312 44.5021 44.4912 44.262 44.2012 44.082H48.1212C47.8312 44.262 47.9912 44.5121 48.1212 44.8721L50.7312 50.792C50.9212 51.192 50.9812 51.402 51.2812 51.572H48.3612C48.8112 51.312 48.1712 50.452 48.0612 50.072H44.1812C44.0612 50.452 43.4312 51.312 43.9012 51.572H41.7612ZM44.7612 48.4619H47.4912L46.1112 45.252L44.7612 48.4619Z" fill="#52545B"></path><path d="M55.2887 50.53C55.2887 51.02 55.2887 51.28 55.5887 51.53H52.9688C53.2887 51.28 53.2588 51.03 53.2788 50.53V45.03C53.2788 44.53 53.2788 44.28 52.9688 44.03H55.5687L59.6188 48.4099H59.6787V45C59.6787 44.51 59.6788 44.26 59.3788 44H61.9688C61.6587 44.25 61.6787 44.5 61.6587 45V51.53H59.8187L55.2987 46.71L55.2887 50.53Z" fill="#52545B"></path><path d="M69.1415 51.7497C65.3615 51.9997 63.1414 48.9098 64.8414 45.5998C66.5514 43.0498 70.3414 43.8897 72.9514 44.3197L71.9514 46.1395C71.1314 45.1895 68.9514 45.2195 67.8614 45.6395C66.5514 46.1195 66.3214 47.9397 66.8614 49.0397C67.7414 50.6397 71.3514 50.4997 71.3214 48.3097C70.6814 48.3597 69.0114 48.1696 68.4614 48.4696H68.3815L68.6114 46.9997H73.6114C73.7372 47.6257 73.7112 48.2727 73.5358 48.8866C73.3603 49.5006 73.0404 50.0637 72.6028 50.5287C72.1652 50.9937 71.6226 51.3473 71.0204 51.5597C70.4182 51.7721 69.774 51.8372 69.1415 51.7497Z" fill="#52545B"></path><path d="M80.1208 51.7601C77.5308 51.8601 75.3408 50.4801 75.4408 47.7601C75.3408 45.0501 77.5608 43.7601 80.1208 43.8201C86.4208 43.4501 86.3908 52.1101 80.1208 51.7601ZM80.1208 50.0401C83.3308 50.2701 83.3608 45.2901 80.1208 45.5301C76.8608 45.2801 76.8808 50.2801 80.1208 50.0001V50.0401Z" fill="#52545B"></path><path d="M55.8794 11.0703C55.8794 23.3703 55.4094 27.7604 46.8794 36.6104C38.2994 27.7604 37.8794 23.3703 37.8794 11.0703C37.1194 11.3003 36.3694 11.5503 35.6094 11.8303C35.6094 25.1403 36.7593 28.8303 46.9293 37.5603C57.0893 28.8003 58.2394 25.1403 58.2394 11.8303C57.3894 11.5503 56.6394 11.3003 55.8794 11.0703Z" fill="#52545B"></path><path fill-rule="evenodd" clip-rule="evenodd" d="M46.5997 37.6797C45.1394 38.2822 43.8707 39.271 42.9297 40.5398C43.6422 40.1998 44.4203 40.0189 45.2097 40.0098C45.1779 39.5263 45.2939 39.0445 45.5421 38.6284C45.7904 38.2123 46.1592 37.8814 46.5997 37.6797Z" fill="#52545B"></path><path fill-rule="evenodd" clip-rule="evenodd" d="M47.0586 37.6797C48.5207 38.279 49.7902 39.2684 50.7286 40.5398C50.0161 40.1998 49.2381 40.0189 48.4486 40.0098C48.4804 39.5263 48.3646 39.0445 48.1163 38.6284C47.8681 38.2123 47.4992 37.8814 47.0586 37.6797Z" fill="#52545B"></path><path d="M34.4891 8C25.6991 25.65 45.049 36.8101 45.049 36.8101C31.679 26.5301 33.0791 12.58 34.4891 8Z" fill="#BABAB3"></path><path d="M34.8494 27.8888C34.4447 27.2088 33.9033 26.6202 33.2595 26.1601C32.6157 25.6999 31.8835 25.3783 31.109 25.2157C30.3346 25.0531 29.5348 25.0531 28.7603 25.2155C27.9857 25.3778 27.2534 25.6989 26.6094 26.1588C26.6094 26.1588 29.9894 23.919 33.8994 28.819C35.393 30.858 37.4308 32.435 39.7794 33.369C38.6594 32.559 37.3494 31.6688 34.8494 27.8888Z" fill="#52545B"></path><path d="M34.1816 26.3726C33.4683 25.5312 32.5482 24.89 31.5117 24.5125C30.3095 22.8686 28.5176 21.754 26.5117 21.4023C28.1305 21.4154 29.7119 21.8902 31.0704 22.7705C32.429 23.6508 33.5083 24.9004 34.1816 26.3726Z" fill="#BABAB3"></path><path d="M59.191 8C67.971 25.65 48.6211 36.8101 48.6211 36.8101C61.9711 26.5301 60.601 12.58 59.191 8Z" fill="#BABAB3"></path><path d="M58.8206 27.8888C59.2252 27.2088 59.7666 26.6202 60.4104 26.1601C61.0542 25.6999 61.7865 25.3783 62.5609 25.2157C63.3354 25.0531 64.1352 25.0531 64.9097 25.2155C65.6842 25.3778 66.4166 25.6989 67.0605 26.1588C67.0605 26.1588 63.6806 23.919 59.7706 28.819C58.2814 30.8622 56.2422 32.4402 53.8906 33.369C54.9706 32.559 56.3206 31.6688 58.8206 27.8888Z" fill="#52545B"></path><path d="M59.5 26.3726C60.2108 25.5284 61.1317 24.8867 62.1699 24.5125C63.3721 22.8686 65.164 21.754 67.1699 21.4023C65.5506 21.413 63.9681 21.8867 62.6091 22.7673C61.2501 23.6479 60.1714 24.8989 59.5 26.3726Z" fill="#BABAB3"></path><path d="M39.9701 6.36255C39.6001 18.0925 40.9701 27.7523 46.8501 35.8823C52.7801 27.7323 54.0901 18.0525 53.7301 6.3125C51.5863 7.34946 49.2371 7.89223 46.8557 7.90088C44.4743 7.90953 42.1214 7.3839 39.9701 6.36255Z" fill="#52545B"></path><path d="M50.8991 3.32251C50.7484 3.01439 50.5059 2.76045 50.2051 2.5957C49.9043 2.43096 49.5598 2.36334 49.219 2.40234C49.078 2.22553 48.9005 2.08132 48.6985 1.97949C48.4966 1.87766 48.275 1.82077 48.049 1.8125C47.5867 1.84456 47.1476 2.02723 46.799 2.33252C46.4503 2.02723 46.0113 1.84456 45.549 1.8125C45.323 1.82077 45.1015 1.87766 44.8996 1.97949C44.6976 2.08132 44.5201 2.22553 44.3791 2.40234C42.3791 2.19234 41.899 5.00246 42.679 6.27246C42.909 6.66246 43.039 6.73246 43.159 6.77246C44.3522 7.05051 45.5738 7.18802 46.799 7.18237C48.0242 7.18894 49.2459 7.05142 50.439 6.77246C50.559 6.77246 50.689 6.66246 50.919 6.27246C51.1494 5.81426 51.2677 5.30777 51.2642 4.79492C51.2607 4.28207 51.1357 3.77755 50.8991 3.32251ZM43.1491 6.32251C43.0091 6.32251 42.629 5.8425 42.559 4.8125C42.4917 4.33128 42.6075 3.84235 42.8835 3.44238C43.1594 3.04241 43.5752 2.76037 44.049 2.65234C44.109 2.65234 44.129 2.74244 44.049 2.75244C42.269 3.19244 42.5091 5.43255 43.1491 6.36255V6.32251ZM43.869 6.40234C42.359 6.14234 42.649 3.28239 43.869 2.95239C43.979 2.95239 44.0791 2.95251 43.9991 3.07251C43.8245 3.53822 43.7561 4.03698 43.799 4.53247C43.8383 5.21972 44.0479 5.88634 44.409 6.47241C44.2285 6.47525 44.0481 6.4652 43.869 6.44238V6.40234ZM44.719 6.49243C44.2208 5.88473 43.9582 5.11805 43.979 4.33252C43.909 2.44252 45.559 1.33232 46.719 2.63232C46.719 2.63232 46.7191 2.74238 46.6291 2.69238C45.5191 1.47238 44.019 2.56252 44.089 4.33252C44.1286 5.07098 44.3483 5.78838 44.729 6.42236L44.719 6.53247V6.49243ZM45.319 6.5625C44.119 6.0025 43.869 3.4225 44.949 2.5625C45.659 2.0725 46.609 2.56242 46.309 3.23242C46.0883 3.6861 45.9592 4.17877 45.929 4.68237C45.869 6.25237 46.2591 6.68237 46.2591 6.68237C45.9435 6.70887 45.6256 6.68199 45.319 6.60254V6.5625ZM46.809 6.70239C46.529 6.70239 46.249 5.93249 46.239 4.80249C46.2097 4.48194 46.244 4.15877 46.3401 3.85156C46.4362 3.54435 46.5922 3.25913 46.799 3.01245C47.499 3.37245 47.529 6.58243 46.809 6.74243V6.70239ZM48.2791 6.5625C47.9714 6.63525 47.6535 6.65559 47.339 6.62256C47.339 6.62256 47.729 6.21256 47.669 4.62256C47.6388 4.11896 47.5097 3.62604 47.289 3.17236C46.989 2.46236 47.9391 2.01244 48.6491 2.50244C49.7291 3.46244 49.4791 6.00254 48.2791 6.60254V6.5625ZM48.909 6.5625C48.719 6.5025 49.5291 5.56232 49.5091 4.38232C49.5791 2.61232 48.079 1.52243 46.969 2.74243C46.969 2.79243 46.8391 2.74237 46.8791 2.68237C48.0391 1.37237 49.689 2.49232 49.619 4.38232C49.6066 5.1607 49.359 5.9173 48.909 6.55249V6.5625ZM49.729 6.45239C49.5608 6.48723 49.3904 6.51068 49.219 6.52246C49.5801 5.93639 49.7897 5.26977 49.829 4.58252C49.8719 4.08703 49.8036 3.58827 49.6291 3.12256C49.5491 2.95256 49.6291 2.95244 49.7591 3.00244C50.9691 3.33244 51.239 6.18238 49.729 6.44238V6.45239ZM50.5291 6.37256C50.5291 6.37256 50.399 6.37249 50.449 6.30249C51.199 5.55249 51.1591 3.02249 49.5291 2.80249C49.4691 2.80249 49.5291 2.68239 49.5291 2.70239C51.2691 2.92239 51.3291 5.57255 50.5291 6.36255V6.37256Z" fill="#52545B"></path><path d="M47.0587 2.00024L46.8187 1.60034L46.9988 1.4502L47.3488 1.68018L47.2788 1.39014L47.3788 1.13013L46.9988 1.39014L46.8387 1.21021L47.0587 0.820312L46.7987 0.930176L46.5387 0.820312L46.7588 1.21021L46.5887 1.39014L46.2188 1.13013L46.3087 1.39014L46.2388 1.68018L46.5887 1.4502L46.7688 1.60034L46.5288 2.00024C46.6198 2.05372 46.7066 2.11382 46.7887 2.18018L47.0587 2.00024Z" fill="#52545B"></path><path d="M50.4716 7.11209C50.4681 7.09479 50.4612 7.07826 50.4511 7.06375C50.4411 7.04924 50.4281 7.03698 50.4132 7.02762C50.3982 7.01826 50.3814 7.01199 50.364 7.00931C50.3465 7.00663 50.3287 7.00757 50.3116 7.01199C49.1563 7.27185 47.9757 7.40254 46.7916 7.40189C45.6074 7.40254 44.427 7.27185 43.2717 7.01199C43.2546 7.00757 43.2368 7.00663 43.2193 7.00931C43.2019 7.01199 43.1851 7.01826 43.1701 7.02762C43.1552 7.03698 43.1422 7.04924 43.1322 7.06375C43.1221 7.07826 43.1152 7.09479 43.1117 7.11209C43.1054 7.14643 43.1122 7.18186 43.1307 7.21146C43.1492 7.24106 43.178 7.2626 43.2116 7.272C44.386 7.54044 45.587 7.67453 46.7916 7.67191C47.9962 7.67453 49.1973 7.54044 50.3717 7.272C50.4053 7.2626 50.4341 7.24106 50.4526 7.21146C50.4711 7.18186 50.4779 7.14643 50.4716 7.11209Z" fill="#52545B"></path><path opacity="0.35" d="M51.97 16.5096C51.91 18.2196 50.27 19.6096 48.83 18.5896C49.0299 18.8154 49.286 18.9841 49.5723 19.0789C49.8585 19.1737 50.1648 19.1912 50.46 19.1294C50.06 20.6694 47.4599 20.9896 46.7899 19.5096C46.5218 19.7378 46.2076 19.9053 45.8687 20.0005C45.5297 20.0958 45.1742 20.1164 44.8265 20.0613C44.4788 20.0062 44.1472 19.8766 43.8544 19.6812C43.5615 19.4858 43.3144 19.2294 43.13 18.9295C43.4536 19.0351 43.8009 19.0442 44.1295 18.9554C44.4581 18.8666 44.7537 18.6837 44.98 18.4295C41.81 20.3295 40.3699 14.0396 43.7999 13.7896C43.5258 13.7465 43.2452 13.7704 42.9823 13.8592C42.7194 13.948 42.4818 14.0991 42.2899 14.2996C42.0399 12.2996 45.12 10.4195 46.5 12.2295C46.3668 11.9756 46.1711 11.7598 45.9314 11.6023C45.6917 11.4449 45.416 11.3511 45.13 11.3296C45.3567 11.1089 45.6253 10.9359 45.9202 10.8211C46.215 10.7063 46.5299 10.6519 46.8462 10.6612C47.1624 10.6705 47.4736 10.7433 47.7611 10.8753C48.0487 11.0073 48.3068 11.1958 48.52 11.4295C48.1873 11.4567 47.8693 11.5786 47.6035 11.7806C47.3377 11.9826 47.1353 12.2563 47.02 12.5696C48.86 9.70963 53.56 13.9096 50.45 15.7396C50.6919 15.6828 50.9185 15.5737 51.1138 15.42C51.309 15.2662 51.4681 15.0716 51.58 14.8497C51.8722 15.3519 52.008 15.9298 51.97 16.5096Z" fill="white"></path><path d="M46.668 24.409C46.598 25.409 46.748 26.679 45.938 27.199C45.618 27.439 45.668 27.4192 45.288 27.3592C44.999 27.3483 44.7144 27.4326 44.478 27.5992C44.278 27.6892 43.978 27.6891 43.918 27.7391C44.2186 27.7959 44.5273 27.7959 44.828 27.7391C45.3087 27.6314 45.8073 27.6314 46.288 27.7391C45.818 27.8591 43.688 28.4091 45.738 28.0091C46.338 27.8791 46.418 28.0091 46.848 28.0091C47.278 28.0091 48.4581 28.279 48.3881 28.159C48.3181 28.039 48.008 27.9392 47.788 27.8592C47.348 27.7492 46.728 27.8592 47.618 27.5892C48.148 27.5092 48.318 27.729 48.858 27.699C48.958 27.699 50.298 27.6992 49.788 27.6092C49.2889 27.5758 48.7937 27.4987 48.308 27.3789C47.308 27.0189 47.518 25.3789 47.488 24.3789C47.2158 24.3288 46.9358 24.339 46.668 24.409Z" fill="white"></path><path d="M48.7308 18.2407C49.0714 18.2597 49.4114 18.197 49.7228 18.0579C50.0341 17.9187 50.3078 17.707 50.5209 17.4407C49.8496 17.8472 49.0487 17.9832 48.2809 17.8208C48.7106 17.5773 49.0586 17.2119 49.2809 16.7708C49.5052 16.7984 49.7327 16.769 49.9425 16.6851C50.1523 16.6011 50.3375 16.4655 50.4808 16.2908C50.3353 16.3875 50.1707 16.4519 49.9982 16.4795C49.8256 16.5071 49.6493 16.4972 49.4808 16.4507C49.7366 15.993 49.8869 15.4839 49.9208 14.9607C49.6908 16.1707 47.9208 18.2007 47.1208 17.6807C47.0508 17.5407 47.1209 17.3207 47.6409 16.6807C47.9257 16.3469 48.1155 15.943 48.1908 15.5107C49.5108 15.0707 49.5209 13.3408 49.5209 13.3408C49.4979 13.6878 49.3724 14.0203 49.1606 14.2961C48.9489 14.572 48.6601 14.7788 48.3308 14.8906C48.3308 14.8906 48.3308 13.4006 47.6608 12.8906C47.8702 13.3043 47.9852 13.7594 47.9973 14.2229C48.0094 14.6864 47.9184 15.1468 47.7308 15.5708C47.7252 15.4386 47.6817 15.3108 47.6055 15.2026C47.5292 15.0945 47.4234 15.0104 47.3008 14.9607C47.4508 15.1607 47.6008 16.3708 47.0508 16.7808C46.3108 17.5108 45.5009 15.8407 45.7809 14.0107C45.7809 14.0107 45.3308 14.6208 45.7208 16.3008C45.3261 16.1491 44.966 15.9195 44.6619 15.6257C44.3578 15.3319 44.116 14.9801 43.9508 14.5908C44.0784 15.1213 44.3271 15.615 44.6776 16.0332C45.0281 16.4514 45.4708 16.7825 45.9708 17.0007C45.9708 17.0007 46.1508 17.0607 46.3108 17.7107C46.4708 18.3607 45.7609 18.5108 45.0209 18.0208C44.7935 17.8546 44.6056 17.6403 44.4707 17.3931C44.3359 17.1458 44.2574 16.8719 44.2408 16.5908C44.1749 16.9919 44.2199 17.4034 44.3708 17.7808C43.9853 17.6897 43.6216 17.5231 43.3008 17.2908C43.6751 17.7244 44.1437 18.0664 44.6708 18.2908C45.3708 18.6708 46.2208 19.0508 46.3708 19.5308C46.6847 20.6657 46.7863 21.8489 46.6708 23.0208C46.9517 22.9491 47.2211 22.8379 47.4708 22.6907C47.4608 20.7907 47.5008 18.2607 48.7308 18.2407Z" fill="white"></path><path d="M44.5 25.6414C44.5 25.7114 44.74 25.6414 44.74 25.6414C44.8047 25.3258 44.9825 25.0451 45.24 24.8516C44.9193 25.0342 44.6614 25.3094 44.5 25.6414Z" fill="white"></path><path d="M48.1083 24.2422C48.5083 24.3322 47.4683 24.8922 48.1083 25.0122C48.119 24.8685 48.175 24.7321 48.2683 24.6223C48.4583 24.3423 48.5283 24.4323 48.5183 24.3623C48.5083 24.2923 48.1083 24.2422 48.1083 24.2422Z" fill="white"></path><path d="M50.2988 24.2517C50.2088 24.1417 50.2989 24.0617 50.1289 24.0117C50.1289 24.0117 50.2488 24.1717 50.1888 24.2417C50.1288 24.3117 50.2988 24.4418 50.2988 24.3418C50.2936 24.312 50.2936 24.2815 50.2988 24.2517Z" fill="white"></path><path d="M50.4684 23.6526C50.4684 23.6526 50.4684 23.5928 50.4684 23.5728C50.4684 23.5528 50.4685 23.3627 50.3885 23.4827C50.3085 23.6027 50.3885 23.5328 50.3885 23.5928C50.3885 23.6528 50.3885 23.5427 50.3885 23.4927C50.3885 23.4427 50.3285 23.6326 50.3885 23.6726C50.4485 23.7126 50.3885 23.5927 50.2785 23.5427C50.1685 23.4927 49.8285 23.5426 49.7585 23.6526C49.8079 23.5829 49.8687 23.5221 49.9384 23.4727C49.8684 23.3927 49.8384 23.3127 49.8584 23.2927C49.8784 23.2727 49.6085 22.7527 49.5285 22.7727C49.2285 22.1827 49.2784 22.7726 49.3184 22.9226C49.2678 22.8354 49.2307 22.7409 49.2084 22.6426C48.5584 22.2826 47.0784 23.1827 46.5384 23.3027C46.314 23.3656 46.0774 23.3698 45.851 23.3149C45.6246 23.2601 45.416 23.1479 45.2454 22.9893C45.0747 22.8307 44.9476 22.631 44.8764 22.4092C44.8051 22.1874 44.7921 21.951 44.8384 21.7227C44.4484 22.4827 44.7585 22.8628 44.7585 22.8628L44.5584 22.7927C44.7784 23.5427 45.8284 23.6426 45.8284 23.6426C45.8284 23.6426 45.9585 23.4927 46.0185 23.4827C45.7085 23.8227 45.9584 23.7827 45.4084 24.2927C45.0284 24.6927 44.7384 24.5726 44.7184 24.6426C44.6997 24.7999 44.6373 24.949 44.5384 25.0728C44.4404 25.2136 44.3144 25.3326 44.1684 25.4226C44.1684 25.4226 44.0884 25.4228 44.1684 25.6128C44.2484 25.8028 44.3184 25.7427 44.3184 25.7427C44.4975 25.3798 44.7657 25.0683 45.0981 24.8374C45.4304 24.6065 45.8159 24.4638 46.2184 24.4226C47.2184 24.3126 46.8684 23.6028 46.8684 23.6028C46.9587 23.6657 47.0221 23.7601 47.0462 23.8674C47.0702 23.9748 47.0532 24.0872 46.9984 24.1826C49.1984 23.8326 49.5384 25.0127 49.5384 25.0127C49.8884 24.8927 49.6584 24.7428 49.5384 24.5728C49.5282 24.4797 49.5282 24.3858 49.5384 24.2927C49.5384 24.2227 49.6584 24.1728 49.6684 24.0828C49.6621 24.1362 49.6374 24.1856 49.5984 24.2227C49.5184 24.3127 49.5984 24.3927 49.5984 24.4927C49.5984 24.5927 49.6584 24.7428 49.6784 24.5728C49.6891 24.6018 49.6891 24.6336 49.6784 24.6626C49.6784 24.7126 49.7584 24.6627 49.6784 24.5427C49.6381 24.409 49.6381 24.2663 49.6784 24.1326C49.6784 23.9326 49.7885 24.0827 49.8885 24.0127C49.9885 23.9427 50.0184 24.0127 50.1184 24.0127C50.2184 24.0127 50.2185 24.1327 50.2685 24.2427C50.3185 24.3527 50.2684 23.9826 50.2084 23.9626C50.2784 23.9626 50.2084 23.8527 50.2084 23.8127C50.2084 23.7727 50.3984 24.0026 50.4084 23.8826C50.4184 23.7626 50.5184 23.7326 50.4684 23.6526ZM49.6584 23.6526H49.5984L49.4984 23.5327C49.4984 23.5327 49.5184 23.5826 49.6584 23.6826V23.6526ZM49.7184 23.8428C49.7184 23.8928 49.5584 23.8427 49.4784 23.7727C49.44 23.8134 49.4095 23.8607 49.3885 23.9126C49.3085 23.9126 49.3885 24.0927 49.3885 24.0027C49.3885 23.9127 49.4785 24.1826 49.3885 24.2126C49.2985 24.2426 49.3884 24.3826 49.3284 24.4326C48.9284 23.9826 48.1384 24.0826 48.4684 23.6426C48.5122 23.5851 48.5359 23.5149 48.5359 23.4426C48.5359 23.3704 48.5122 23.3002 48.4684 23.2427C48.5086 23.2774 48.5409 23.3203 48.563 23.3687C48.5851 23.417 48.5966 23.4696 48.5966 23.5227C48.5966 23.5758 48.5851 23.6284 48.563 23.6768C48.5409 23.7251 48.5086 23.768 48.4684 23.8027C48.7286 23.7609 48.9792 23.6728 49.2084 23.5427C49.2084 23.5427 49.2084 23.5426 49.3484 23.7026C49.3484 23.7026 49.3484 23.7027 49.3484 23.7727C49.3484 23.8227 49.4884 23.8728 49.5484 23.8328C49.6084 23.7928 49.4884 23.7426 49.4684 23.7126C49.4484 23.6826 49.7484 23.8528 49.7184 23.8728V23.8428Z" fill="white"></path><path d="M106.201 28.3501C106.238 23.7708 105.971 19.1938 105.401 14.6499V0.330078C105.401 0.242557 105.366 0.158567 105.304 0.0966797C105.242 0.0347927 105.158 0 105.071 0C104.983 0 104.899 0.0347927 104.838 0.0966797C104.776 0.158567 104.741 0.242557 104.741 0.330078V14.6399C104.171 19.1872 103.904 23.7674 103.941 28.3501C103.904 32.9328 104.171 37.5128 104.741 42.0601V56.3799C104.741 56.7899 105.411 56.8099 105.401 56.3799V42.0601C105.97 37.5128 106.238 32.9328 106.201 28.3501Z" fill="#52545B"></path></svg> 